<?xml version="1.0" encoding="UTF-8" standalone="no"?>
<!DOCTYPE svg PUBLIC "-//W3C//DTD SVG 1.1//EN" "http://www.w3.org/Graphics/SVG/1.1/DTD/svg11.dtd">
<!-- Generated by Microsoft Visio, SVG Export i051101d4.svg Page-1 -->
<svg xmlns="http://www.w3.org/2000/svg" xmlns:xlink="http://www.w3.org/1999/xlink" xmlns:ev="http://www.w3.org/2001/xml-events"
		xmlns:v="http://schemas.microsoft.com/visio/2003/SVGExtensions/" width="3.14961in" height="1.9685in"
		viewBox="0 0 226.772 141.732" xml:space="preserve" color-interpolation-filters="sRGB" class="st28">
	<v:documentProperties v:langID="1033" v:viewMarkup="false">
		<v:userDefs>
			<v:ud v:nameU="msvConvertTheme"/>
			<v:ud v:nameU="msvNoAutoConnect" v:val="VT0(1):26"/>
		</v:userDefs>
	</v:documentProperties>

	<style type="text/css">
	<![CDATA[
		.st1 {fill:#9a9a9a;stroke:#666666;stroke-linecap:round;stroke-linejoin:round;stroke-width:1.2}
		.st2 {fill:#ffff00;stroke:#000000;stroke-linecap:round;stroke-linejoin:round;stroke-width:0.24}
		.st3 {fill:#000000;stroke:none;stroke-linecap:round;stroke-linejoin:round;stroke-width:0.75}
		.st4 {fill:#f4ffba;stroke:none;stroke-linecap:round;stroke-linejoin:round;stroke-width:0.75}
		.st5 {fill:#000000;font-family:Arial;font-size:1.5em;font-style:italic;font-weight:bold}
		.st6 {marker-end:url(#mrkr1-19);stroke:#000000;stroke-linecap:round;stroke-linejoin:round;stroke-width:2.16}
		.st7 {fill:#000000;fill-opacity:1;stroke:#000000;stroke-opacity:1;stroke-width:0.6}
		.st8 {fill:none;stroke:none;stroke-linecap:round;stroke-linejoin:round;stroke-width:0.72}
		.st9 {fill:#9a9a9a;font-family:Arial;font-size:1.00001em;font-weight:bold;opacity:0}
		.st10 {fill:none;stroke:#000000;stroke-linecap:round;stroke-linejoin:round;stroke-width:1.2}
		.st11 {fill:none;stroke:none;stroke-linecap:round;stroke-linejoin:round;stroke-width:1.2}
		.st12 {fill:#000000;font-family:Arial;font-size:1.33333em;font-style:italic}
		.st13 {baseline-shift:-32.4948%;font-size:0.649895em}
		.st14 {fill:#ffff00;stroke:#666666;stroke-dasharray:3.6,3.6;stroke-linecap:round;stroke-linejoin:round;stroke-width:1.2}
		.st15 {fill:#000000;font-family:Arial;font-size:1.33333em;font-style:italic;font-weight:bold}
		.st16 {marker-end:url(#mrkr1-58);stroke:#000000;stroke-dasharray:2.16,2.16;stroke-linecap:round;stroke-linejoin:round;stroke-width:0.72}
		.st17 {fill:#000000;fill-opacity:1;stroke:#000000;stroke-opacity:1;stroke-width:0.22222222222222}
		.st18 {fill:#000000;font-family:Arial;font-size:0.75em}
		.st19 {marker-end:url(#mrkr1-58);stroke:#000000;stroke-linecap:round;stroke-linejoin:round;stroke-width:0.72}
		.st20 {fill:#ffffff;stroke:none;stroke-linecap:butt;stroke-width:7.2}
		.st21 {fill:#000000;font-family:Arial;font-size:0.833336em}
		.st22 {fill:none;stroke:#000000;stroke-dasharray:0,4.5;stroke-linecap:round;stroke-linejoin:round;stroke-width:1.5}
		.st23 {fill:#000000;font-family:Arial;font-size:1.00001em;font-style:italic;font-weight:bold}
		.st24 {fill:#000000;font-family:Arial;font-size:1.16666em;font-style:italic;font-weight:bold}
		.st25 {font-size:1em;font-style:normal}
		.st26 {font-family:Arial Unicode MS;font-size:1em;font-style:normal}
		.st27 {font-family:Arial Unicode MS;font-size:1em}
		.st28 {fill:none;fill-rule:evenodd;font-size:12px;overflow:visible;stroke-linecap:square;stroke-miterlimit:3}
	]]>
	</style>

	<defs id="Markers">
		<g id="lend1">
			<path d="M 1 -1 L 0 0 L 1 1 " style="stroke-linecap:round;stroke-linejoin:round;fill:none"/>
		</g>
		<marker id="mrkr1-19" class="st7" v:arrowType="1" v:arrowSize="0" orient="auto" markerUnits="strokeWidth"
				overflow="visible">
			<use xlink:href="#lend1" transform="scale(-1.6666666666667,-1.6666666666667) "/>
		</marker>
		<marker id="mrkr1-58" class="st17" v:arrowType="1" v:arrowSize="2" orient="auto" markerUnits="strokeWidth"
				overflow="visible">
			<use xlink:href="#lend1" transform="scale(-4.5,-4.5) "/>
		</marker>
	</defs>
	<g v:mID="0" v:index="1" v:groupContext="foregroundPage">
		<v:userDefs>
			<v:ud v:nameU="UMLDiagramType" v:val="VT0(0):26"/>
		</v:userDefs>
		<title>Page-1</title>
		<v:pageProperties v:drawingScale="0.019685" v:pageScale="0.0393701" v:drawingUnits="24" v:shadowOffsetX="8.50394"
				v:shadowOffsetY="-8.50394" v:shadowType="1"/>
		<g id="group69-1" transform="translate(9.07087,17.0079)" v:mID="69" v:groupContext="group">
			<title>Sheet.69</title>
			<g id="group38-2" transform="translate(0,-51.0236)" v:mID="38" v:groupContext="group">
				<title>Sheet.38</title>
				<g id="group7-3" transform="translate(67.4665,6.82121E-13)" v:mID="7" v:groupContext="group">
					<title>Sheet.7</title>
					<g id="shape1-4" v:mID="1" v:groupContext="shape">
						<title>Rectangle</title>
						<v:userDefs>
							<v:ud v:nameU="visVersion" v:val="VT0(11):26"/>
						</v:userDefs>
						<rect x="0" y="78.2638" width="79.5702" height="63.4684" rx="5.66929" ry="5.66929" class="st1"/>
					</g>
					<g id="shape6-6" v:mID="6" v:groupContext="shape" transform="translate(7.77957,-7.87185)">
						<title>Blunt starburst</title>
						<v:userDefs>
							<v:ud v:nameU="visVersion" v:val="VT0(11):26"/>
						</v:userDefs>
						<path d="M5.69 114.46 L0.49 116.46 L6.55 119.07 L1.61 124.92 L8.16 127.54 L4.45 133.27 L12.86 134.26 L14.14
									 140.78 L21.4 138.37 L26.71 141.73 L30.79 138.49 L35.09 141.73 L38.71 137.87 L44.27 140.49 L49.22
									 135.38 L58.37 136.88 L56.02 130.9 L62.33 130.28 L58 123.43 L63.32 119.58 L56.52 115.34 L60.35
									 109.36 L53.18 109.11 L56.04 102.18 L47 103.13 L46.44 95.98 L37.35 99.15 L34.04 93.92 L28.2 98.65
									 L22.52 93.92 L19.05 101.02 L12.92 97.26 L13.11 103.51 L5.24 101.7 L7.17 108.11 L0 107.86 L5.69
									 114.46 Z" class="st2"/>
					</g>
					<g id="group5-8" transform="translate(15.6899,-10.4723)" v:mID="5" v:groupContext="group">
						<title>Sheet.5</title>
						<g id="shape17-9" v:mID="17" v:groupContext="shape">
							<title>Sheet.17</title>
							<path d="M44.61 119.26 L50.15 116.53 L49.93 115.77 L49.86 115.47 L49.79 115.23 L49.65 114.94 L49.58 114.7
										 L49.44 114.4 L49.37 114.05 L49.22 113.75 L49.08 113.4 L48.73 112.69 L42.26 112.93 L41.98
										 112.57 L41.77 112.22 L41.48 111.86 L41.2 111.51 L44.32 106.77 L43.68 106.24 L43.47 106.01
										 L43.19 105.83 L42.9 105.59 L42.62 105.35 L42.41 105.12 L42.12 104.94 L41.84 104.7 L41.55
										 104.53 L40.84 104.05 L35.37 106.95 L34.95 106.72 L34.52 106.54 L34.02 106.3 L33.6 106.12
										 L33.46 100.74 L32.6 100.5 L32.25 100.45 L31.89 100.33 L31.54 100.27 L31.18 100.21 L30.83
										 100.09 L30.4 100.03 L30.05 99.97 L29.69 99.91 L28.77 99.79 L25.86 104.53 L25.57 104.53 L25.29
										 104.53 L25.07 104.53 L24.79 104.53 L24.51 104.53 L24.22 104.53 L23.94 104.59 L23.65 104.59
										 L20.39 99.97 L19.46 100.15 L19.11 100.21 L18.68 100.27 L18.33 100.33 L18.04 100.45 L17.69
										 100.5 L17.33 100.62 L17.05 100.68 L16.69 100.8 L15.84 101.04 L16.12 106.3 L15.63 106.54
										 L15.06 106.77 L14.56 107.07 L14.06 107.31 L8.52 104.76 L7.88 105.24 L7.39 105.65 L6.82 106.06
										 L6.32 106.54 L5.9 106.95 L5.26 107.54 L8.59 111.86 L8.24 112.33 L7.88 112.81 L7.53 113.34
										 L7.25 113.81 L1.14 113.87 L0.85 114.58 L0.64 115.17 L0.5 115.71 L0.28 116.3 L0.14 116.89
										 L0 117.66 L5.33 119.91 L5.26 120.5 L5.26 121.15 L5.26 121.74 L5.33 122.39 L0.21 124.93 L0.43
										 125.64 L0.57 126.23 L0.78 126.83 L0.99 127.36 L1.21 127.89 L1.49 128.6 L7.39 128.36 L7.74
										 128.96 L8.17 129.49 L8.59 130.02 L9.02 130.55 L6.11 134.87 L6.75 135.4 L7.25 135.82 L7.74
										 136.17 L8.24 136.59 L8.74 136.94 L9.45 137.47 L14.42 134.81 L14.77 134.99 L15.06 135.17
										 L15.41 135.34 L15.77 135.46 L16.05 135.64 L16.41 135.76 L16.76 135.88 L17.12 135.99 L17.19
										 140.85 L18.11 141.08 L18.47 141.14 L18.75 141.26 L19.11 141.32 L19.46 141.38 L19.75 141.44
										 L20.1 141.5 L20.46 141.55 L20.81 141.61 L21.74 141.73 L24.43 137.36 L24.79 137.36 L25.22
										 137.36 L25.57 137.36 L25.93 137.36 L26.28 137.36 L26.71 137.36 L27.06 137.3 L27.42 137.3
										 L30.47 141.5 L31.32 141.26 L31.61 141.2 L31.96 141.14 L32.25 141.08 L32.46 141.02 L32.82
										 140.9 L33.24 140.85 L33.6 140.73 L34.02 140.61 L34.88 140.31 L34.59 135.34 L34.88 135.17
										 L35.23 135.05 L35.52 134.87 L35.8 134.69 L36.08 134.58 L36.37 134.4 L36.65 134.28 L36.94
										 134.1 L42.19 136.59 L42.9 135.99 L43.4 135.58 L43.9 135.17 L44.39 134.69 L44.82 134.28 L45.39
										 133.69 L42.05 129.31 L42.33 128.84 L42.62 128.42 L42.83 127.95 L43.12 127.48 L49.37 127.42
										 L49.65 126.65 L49.86 126.06 L50.01 125.47 L50.15 124.87 L50.29 124.28 L50.43 123.51 L44.75
										 121.09 L44.75 120.62 L44.68 120.14 L44.68 119.73 L44.61 119.26 L44.61 119.26 Z"
									class="st3"/>
						</g>
						<g id="shape18-11" v:mID="18" v:groupContext="shape" transform="translate(2.84123,-2.36603)">
							<title>Sheet.18</title>
							<desc>M</desc>
							<v:textBlock v:margins="rect(4,4,4,4)" v:tabSpace="42.5197"/>
							<v:textRect cx="22.4102" cy="123.129" width="44.83" height="37.2058"/>
							<path d="M39.07 120.56 L39.21 121.21 L39.35 121.92 L39.42 122.63 L39.42 123.34 L39.42 124.05 L39.35 124.7
										 L44.82 127.06 L44.75 127.24 L44.75 127.36 L44.68 127.54 L44.61 127.71 L38.57 127.77 L38.29
										 128.42 L37.93 129.13 L37.58 129.84 L37.15 130.49 L36.65 131.09 L36.23 131.68 L39.42 135.88
										 L39.28 135.99 L39.21 136.11 L39.07 136.23 L38.92 136.35 L33.81 133.92 L33.17 134.4 L32.82
										 134.63 L32.39 134.87 L32.03 135.11 L31.61 135.34 L31.18 135.52 L30.76 135.76 L30.33 135.94
										 L29.9 136.11 L29.19 136.47 L29.48 141.26 L29.26 141.32 L29.05 141.32 L28.91 141.38 L28.77
										 141.44 L25.86 137.36 L25 137.47 L24.51 137.53 L24.01 137.59 L23.51 137.65 L23.01 137.65
										 L22.45 137.65 L21.95 137.65 L21.45 137.65 L20.95 137.65 L20.1 137.59 L17.47 141.73 L17.33
										 141.73 L17.19 141.67 L16.98 141.67 L16.83 141.61 L16.76 136.94 L15.98 136.7 L15.48 136.53
										 L15.06 136.35 L14.56 136.17 L14.06 135.99 L13.64 135.82 L13.14 135.58 L12.71 135.34 L12.29
										 135.11 L11.65 134.69 L6.82 137.24 L6.75 137.12 L6.61 137.06 L6.53 136.94 L6.39 136.88 L9.16
										 132.74 L8.67 132.21 L8.38 131.85 L8.03 131.5 L7.74 131.14 L7.46 130.79 L7.17 130.43 L6.96
										 130.02 L6.68 129.67 L6.46 129.25 L6.11 128.6 L0.43 128.78 L0.36 128.66 L0.36 128.6 L0.36
										 128.48 L0.28 128.31 L5.19 125.82 L5.11 125.17 L4.97 124.28 L4.97 123.45 L4.97 122.63 L5.04
										 121.8 L5.11 121.09 L0 118.84 L0.07 118.72 L0.07 118.55 L0.07 118.43 L0.14 118.31 L6.04 118.25
										 L6.32 117.6 L6.75 116.95 L7.17 116.24 L7.67 115.53 L8.24 114.88 L8.74 114.29 L5.54 110.15
										 L5.68 110.03 L5.82 109.91 L5.97 109.79 L6.11 109.67 L11.36 112.16 L12 111.74 L12.36 111.51
										 L12.71 111.33 L13.07 111.15 L13.5 110.91 L13.85 110.74 L14.28 110.56 L14.63 110.44 L15.06
										 110.26 L15.84 109.97 L15.56 104.88 L15.7 104.88 L15.84 104.82 L16.05 104.76 L16.34 104.7
										 L19.46 109.14 L20.31 109.08 L20.74 109.02 L21.1 109.02 L21.52 109.02 L21.95 108.96 L22.37
										 108.96 L22.8 108.96 L23.23 109.02 L23.65 109.02 L24.51 109.08 L27.35 104.53 L27.56 104.59
										 L27.77 104.59 L27.92 104.64 L28.13 104.7 L28.2 109.85 L28.98 110.15 L29.34 110.26 L29.69
										 110.44 L30.12 110.56 L30.47 110.74 L30.83 110.91 L31.18 111.09 L31.47 111.27 L31.82 111.45
										 L32.53 111.8 L37.79 109.02 L37.93 109.14 L38.07 109.26 L38.21 109.38 L38.36 109.5 L35.37
										 114.05 L35.87 114.58 L36.37 115.11 L36.79 115.71 L37.22 116.3 L37.58 116.89 L37.93 117.48
										 L44.18 117.24 L44.25 117.42 L44.32 117.6 L44.32 117.78 L44.39 117.89 L39.07 120.56 L39.07
										 120.56 Z" class="st4"/>
							<text x="14.91" y="128.53" class="st5" v:langID="1033"><v:paragraph v:horizAlign="1"/><v:tabList/>M</text>						</g>
					</g>
					<g id="shape19-14" v:mID="19" v:groupContext="shape" transform="translate(126.314,-13.5826) rotate(37.0565)">
						<title>Sheet.19</title>
						<path d="M0 141.73 A12.4126 14.1732 0 0 1 17.55 141.73" class="st6"/>
					</g>
					<g id="shape21-20" v:mID="21" v:groupContext="shape" transform="translate(29.6987,-14.4391)">
						<title>Sheet.21</title>
						<desc>M</desc>
						<v:textBlock v:margins="rect(0,0,0,0)" v:tabSpace="42.5197" v:verticalAlign="2"/>
						<v:textRect cx="11.2071" cy="129.171" width="22.42" height="25.1229"/>
						<rect x="0" y="116.609" width="22.4141" height="25.1229" class="st8"/>
						<text x="6.21" y="138.43" class="st9" v:langID="1033"><v:paragraph v:spLine="-1.1" v:horizAlign="1"/><v:tabList/>M</text>					</g>
				</g>
				<g id="group22-23" transform="translate(8.00371,-5.22733)" v:mID="22" v:groupContext="group">
					<title>Sheet.22</title>
					<g id="shape23-24" v:mID="23" v:groupContext="shape">
						<title>Sheet.23</title>
						<rect x="0" y="88.8419" width="56.0353" height="52.8904" class="st10"/>
					</g>
					<g id="shape24-26" v:mID="24" v:groupContext="shape" transform="translate(5.60353,0)">
						<title>Sheet.24</title>
						<desc>I</desc>
						<v:textBlock v:margins="rect(4,4,4,4)" v:tabSpace="42.5197"/>
						<v:textRect cx="19.6124" cy="125.865" width="39.23" height="31.7342"/>
						<rect x="0" y="109.998" width="39.2247" height="31.7342" class="st11"/>
						<text x="17.11" y="131.27" class="st5" v:langID="1033"><v:paragraph v:horizAlign="1"/><v:tabList/>I</text>					</g>
					<g id="shape25-29" v:mID="25" v:groupContext="shape" transform="translate(14.0088,-29.0897)">
						<title>Sheet.25</title>
						<desc>ein</desc>
						<v:textBlock v:margins="rect(0,0,0,0)" v:tabSpace="42.5197" v:verticalAlign="2"/>
						<v:textRect cx="12.6079" cy="129.832" width="25.22" height="23.8007"/>
						<rect x="0" y="117.932" width="25.2159" height="23.8007" class="st11"/>
						<text x="4.11" y="136.93" class="st12" v:langID="1033"><v:paragraph v:horizAlign="1"/><v:tabList/>e<tspan
									dy="-0.287em" class="st13" v:baseFontSize="16">in</tspan></text>					</g>
				</g>
				<g id="group26-33" transform="translate(150.894,-5.22733)" v:mID="26" v:groupContext="group">
					<title>Sheet.26</title>
					<g id="shape27-34" v:mID="27" v:groupContext="shape">
						<title>Sheet.27</title>
						<rect x="0" y="88.8419" width="56.0353" height="52.8904" class="st10"/>
					</g>
					<g id="shape28-36" v:mID="28" v:groupContext="shape" transform="translate(5.60353,0)">
						<title>Sheet.28</title>
						<desc>O</desc>
						<v:textBlock v:margins="rect(4,4,4,4)" v:tabSpace="42.5197"/>
						<v:textRect cx="19.6124" cy="125.865" width="39.23" height="31.7342"/>
						<rect x="0" y="109.998" width="39.2247" height="31.7342" class="st11"/>
						<text x="12.61" y="131.27" class="st5" v:langID="1033"><v:paragraph v:horizAlign="1"/><v:tabList/>O</text>					</g>
					<g id="shape29-39" v:mID="29" v:groupContext="shape" transform="translate(14.0088,-29.0897)">
						<title>Sheet.29</title>
						<desc>eout</desc>
						<v:textBlock v:margins="rect(0,0,0,0)" v:tabSpace="42.5197" v:verticalAlign="2"/>
						<v:textRect cx="12.6079" cy="129.832" width="25.22" height="23.8007"/>
						<rect x="0" y="117.932" width="25.2159" height="23.8007" class="st11"/>
						<text x="0.93" y="136.93" class="st12" v:langID="1033"><v:paragraph v:horizAlign="1"/><v:tabList/>e<tspan
									dy="-0.287em" class="st13" v:baseFontSize="16">out</tspan></text>					</g>
				</g>
				<g id="shape30-43" v:mID="30" v:groupContext="shape" transform="translate(58.4355,225.347) scale(1,-1)">
					<title>Sheet.30</title>
					<path d="M0 91.68 L0 138.9 A2.83465 2.83465 -180 0 0 2.83 141.73 L8.91 141.73 A2.83465 2.83465 -180 0 0 11.68
								 139.49 L16.69 115.87 A2.83465 2.83465 -180 0 0 16.69 114.7 L11.68 91.09 A2.83465 2.83465 -180 0
								 0 8.91 88.84 L2.83 88.84 A2.83465 2.83465 -180 0 0 0 91.68 Z" class="st14"/>
				</g>
				<g id="shape31-45" v:mID="31" v:groupContext="shape" transform="translate(139.687,-5.22733)">
					<title>Sheet.31</title>
					<path d="M0 91.68 L0 138.9 A2.83465 2.83465 -180 0 0 2.83 141.73 L8.91 141.73 A2.83465 2.83465 -180 0 0 11.68
								 139.49 L16.69 115.87 A2.83465 2.83465 -180 0 0 16.69 114.7 L11.68 91.09 A2.83465 2.83465 -180 0
								 0 8.91 88.84 L2.83 88.84 A2.83465 2.83465 -180 0 0 0 91.68 Z" class="st14"/>
				</g>
				<g id="shape32-47" v:mID="32" v:groupContext="shape" transform="translate(57.2494,-25.3257)">
					<title>Sheet.32</title>
					<desc>I</desc>
					<v:textBlock v:margins="rect(4,4,4,4)" v:tabSpace="42.5197"/>
					<v:textRect cx="7.00442" cy="135.612" width="14.01" height="12.2403"/>
					<rect x="0" y="129.492" width="14.0088" height="12.2403" class="st11"/>
					<text x="4.78" y="140.41" class="st15" v:langID="1033"><v:paragraph v:horizAlign="1"/><v:tabList/>I</text>				</g>
				<g id="shape33-50" v:mID="33" v:groupContext="shape" transform="translate(138.501,-25.3257)">
					<title>Sheet.33</title>
					<desc>O</desc>
					<v:textBlock v:margins="rect(4,4,4,4)" v:tabSpace="42.5197"/>
					<v:textRect cx="7.00442" cy="135.612" width="14.01" height="12.2403"/>
					<rect x="0" y="129.492" width="14.0088" height="12.2403" class="st11"/>
					<text x="4" y="140.41" class="st15" v:langID="1033"><v:paragraph v:horizAlign="1"/><v:tabList/>O</text>				</g>
				<g id="shape34-53" v:mID="34" v:groupContext="shape" transform="translate(-109.699,89.9614) rotate(-90)">
					<title>Sheet.34</title>
					<desc>«interpretation»</desc>
					<v:textBlock v:margins="rect(0,0,0,0)" v:tabSpace="42.5197"/>
					<v:textRect cx="17.2775" cy="143.15" width="89.85" height="0" transform="rotate(90)"/>
					<path d="M0 141.73 L34.56 141.73" class="st16"/>
					<text x="111.88" y="-14.58" transform="rotate(90)" class="st18" v:langID="1033"><v:paragraph v:horizAlign="1"/><v:tabList/>«interpretation»</text>				</g>
				<g id="shape35-60" v:mID="35" v:groupContext="shape" transform="translate(35.9931,89.9614) rotate(-90)">
					<title>Sheet.35</title>
					<desc>«interpretation»</desc>
					<v:textBlock v:margins="rect(0,0,0,0)" v:tabSpace="42.5197"/>
					<v:textRect cx="17.2775" cy="143.15" width="89.85" height="0" transform="rotate(90)"/>
					<path d="M0 141.73 L34.56 141.73" class="st16"/>
					<text x="111.88" y="-14.58" transform="rotate(90)" class="st18" v:langID="1033"><v:paragraph v:horizAlign="1"/><v:tabList/>«interpretation»</text>				</g>
				<g id="shape36-66" v:mID="36" v:groupContext="shape" transform="translate(33.2196,8.87677)">
					<title>Sheet.36</title>
					<desc>«procedure»</desc>
					<v:textBlock v:margins="rect(0,0,0,0)" v:tabSpace="42.5197"/>
					<v:textRect cx="71.4451" cy="141.732" width="142.9" height="0"/>
					<path d="M0 141.73 L142.89 141.73" class="st19"/>
					<rect v:rectContext="textBkgnd" x="43.3688" y="135.423" width="56.1525" height="12.3091" class="st20"/>
					<text x="43.37" y="144.73" class="st21" v:langID="1033"><v:paragraph v:spLine="-1" v:horizAlign="1"/><v:tabList/>«procedure»</text>				</g>
				<g id="shape37-73" v:mID="37" v:groupContext="shape" transform="translate(11.2071,-79.3356)">
					<title>Sheet.37</title>
					<desc>X</desc>
					<v:textBlock v:margins="rect(4,4,4,4)" v:tabSpace="42.5197"/>
					<v:textRect cx="21.6203" cy="130.507" width="43.25" height="22.4507"/>
					<path d="M0 119.28 L43.24 119.28 L43.24 141.73 L0 141.73 L0 119.28 Z" class="st22"/>
					<text x="17.62" y="134.11" class="st23" v:langID="1033"><v:paragraph v:horizAlign="1"/><v:tabList/>X</text>				</g>
			</g>
			<g id="shape39-76" v:mID="39" v:groupContext="shape" transform="translate(56.6929,-16.6203)">
				<title>Sheet.39</title>
				<desc>M?: I → O</desc>
				<v:textBlock v:margins="rect(4,4,4,4)" v:tabSpace="42.5197"/>
				<v:textRect cx="48.189" cy="130.087" width="96.38" height="23.2901"/>
				<rect x="0" y="118.442" width="96.378" height="23.2901" class="st8"/>
				<text x="17.53" y="134.29" class="st24" v:langID="1033"><v:paragraph v:horizAlign="1" v:bulletSize="0.166667"/><v:tabList/>M?:<tspan
							class="st25"> </tspan>I<tspan class="st25"> </tspan><tspan class="st26">→</tspan><tspan class="st25"> </tspan>O</text>			</g>
			<g id="group71-83" transform="translate(155.906,-130.394)" v:mID="71" v:groupContext="group">
				<title>Sheet.71</title>
				<g id="shape68-84" v:mID="68" v:groupContext="shape">
					<title>Sheet.68</title>
					<desc>Y</desc>
					<v:textBlock v:margins="rect(4,4,4,4)" v:tabSpace="42.5197"/>
					<v:textRect cx="21.6203" cy="130.394" width="43.25" height="22.6772"/>
					<path d="M0 119.06 L43.24 119.06 L43.24 141.73 L0 141.73 L0 119.06 Z" class="st22"/>
					<text x="17.62" y="133.99" class="st23" v:langID="1033"><v:paragraph v:horizAlign="1"/><v:tabList/>Y</text>				</g>
			</g>
			<g id="shape73-87" v:mID="73" v:groupContext="shape" transform="translate(56.6929,-132.962)">
				<title>Sheet.73</title>
				<desc>F: X → Y</desc>
				<v:textBlock v:margins="rect(4,4,4,4)" v:tabSpace="42.5197"/>
				<v:textRect cx="48.189" cy="132.978" width="96.38" height="17.5091"/>
				<rect x="0" y="124.223" width="96.378" height="17.5091" class="st8"/>
				<text x="21.42" y="137.18" class="st24" v:langID="1033"><v:paragraph v:horizAlign="1" v:bulletSize="0.166667"/><v:tabList/>F: X <tspan
							class="st27">→</tspan> Y</text>			</g>
			<g id="shape76-91" v:mID="76" v:groupContext="shape" transform="translate(69.9657,-124.869)">
				<title>Sheet.76</title>
				<desc>«satisfaction»</desc>
				<v:textBlock v:margins="rect(4,4,4,4)" v:tabSpace="42.5197"/>
				<v:textRect cx="34.8018" cy="134.795" width="69.61" height="13.8743"/>
				<rect x="0" y="127.858" width="69.6035" height="13.8743" class="st8"/>
				<text x="4.23" y="138.4" class="st21" v:langID="1033"><v:paragraph v:horizAlign="1"/><v:tabList/>«satisfaction»</text>			</g>
		</g>
	</g>
</svg>
