<?xml version="1.0" encoding="UTF-8" standalone="no"?>
<!DOCTYPE svg PUBLIC "-//W3C//DTD SVG 1.1//EN" "http://www.w3.org/Graphics/SVG/1.1/DTD/svg11.dtd">
<!-- Generated by Microsoft Visio, SVG Export i051101d1.svg Page-1 -->
<svg xmlns="http://www.w3.org/2000/svg" xmlns:xlink="http://www.w3.org/1999/xlink" xmlns:ev="http://www.w3.org/2001/xml-events"
		xmlns:v="http://schemas.microsoft.com/visio/2003/SVGExtensions/" width="1.15144in" height="0.978215in"
		viewBox="0 0 82.9039 70.4315" xml:space="preserve" color-interpolation-filters="sRGB" class="st9">
	<v:documentProperties v:langID="1033" v:viewMarkup="false">
		<v:userDefs>
			<v:ud v:nameU="msvConvertTheme"/>
			<v:ud v:nameU="msvNoAutoConnect" v:val="VT0(1):26"/>
		</v:userDefs>
	</v:documentProperties>

	<style type="text/css">
	<![CDATA[
		.st1 {fill:#9a9a9a;stroke:#666666;stroke-linecap:round;stroke-linejoin:round;stroke-width:1.2}
		.st2 {fill:#ffff00;stroke:#000000;stroke-linecap:round;stroke-linejoin:round;stroke-width:0.24}
		.st3 {fill:#000000;stroke:none;stroke-linecap:round;stroke-linejoin:round;stroke-width:0.75}
		.st4 {fill:#f4ffba;stroke:none;stroke-linecap:round;stroke-linejoin:round;stroke-width:0.75}
		.st5 {marker-end:url(#mrkr1-16);stroke:#000000;stroke-linecap:round;stroke-linejoin:round;stroke-width:2.16}
		.st6 {fill:#000000;fill-opacity:1;stroke:#000000;stroke-opacity:1;stroke-width:0.6}
		.st7 {fill:none;stroke:none;stroke-linecap:round;stroke-linejoin:round;stroke-width:0.72}
		.st8 {fill:#9a9a9a;font-family:Arial;font-size:1.00001em;font-weight:bold;opacity:0}
		.st9 {fill:none;fill-rule:evenodd;font-size:12px;overflow:visible;stroke-linecap:square;stroke-miterlimit:3}
	]]>
	</style>

	<defs id="Markers">
		<g id="lend1">
			<path d="M 1 -1 L 0 0 L 1 1 " style="stroke-linecap:round;stroke-linejoin:round;fill:none"/>
		</g>
		<marker id="mrkr1-16" class="st6" v:arrowType="1" v:arrowSize="0" orient="auto" markerUnits="strokeWidth"
				overflow="visible">
			<use xlink:href="#lend1" transform="scale(-1.6666666666667,-1.6666666666667) "/>
		</marker>
	</defs>
	<g v:mID="0" v:index="1" v:groupContext="foregroundPage">
		<v:userDefs>
			<v:ud v:nameU="UMLDiagramType" v:val="VT0(0):26"/>
		</v:userDefs>
		<title>Page-1</title>
		<v:pageProperties v:drawingScale="0.019685" v:pageScale="0.0393701" v:drawingUnits="24" v:shadowOffsetX="8.50394"
				v:shadowOffsetY="-8.50394" v:shadowType="1"/>
		<g id="group7-1" transform="translate(1.2,-1.2)" v:mID="7" v:groupContext="group">
			<title>Sheet.7</title>
			<g id="shape1-2" v:mID="1" v:groupContext="shape">
				<title>Rectangle</title>
				<v:userDefs>
					<v:ud v:nameU="visVersion" v:val="VT0(11):26"/>
				</v:userDefs>
				<rect x="0" y="2.4" width="80.5039" height="68.0315" rx="5.66929" ry="5.66929" class="st1"/>
			</g>
			<g id="shape6-4" v:mID="6" v:groupContext="shape" transform="translate(8.7874,-8.39055)">
				<title>Blunt starburst</title>
				<v:userDefs>
					<v:ud v:nameU="visVersion" v:val="VT0(11):26"/>
				</v:userDefs>
				<path d="M5.76 41.2 L0.5 43.34 L6.63 46.14 L1.63 52.41 L8.26 55.22 L4.5 61.36 L13.01 62.42 L14.31 69.41 L21.65 66.83
							 L27.02 70.43 L31.16 66.96 L35.5 70.43 L39.16 66.29 L44.79 69.1 L49.8 63.62 L59.06 65.23 L56.68 58.82
							 L63.06 58.15 L58.68 50.81 L64.06 46.69 L57.18 42.14 L61.06 35.73 L53.8 35.46 L56.69 28.03 L47.55 29.06
							 L46.98 21.39 L37.79 24.79 L34.44 19.18 L28.53 24.25 L22.78 19.18 L19.27 26.79 L13.07 22.76 L13.26 29.46
							 L5.3 27.52 L7.26 34.4 L0 34.13 L5.76 41.2 Z" class="st2"/>
			</g>
			<g id="group5-6" transform="translate(15.3071,-11.2252)" v:mID="5" v:groupContext="group">
				<title>Sheet.5</title>
				<g id="shape17-7" v:mID="17" v:groupContext="shape">
					<title>Sheet.17</title>
					<path d="M45.13 46.34 L50.74 43.42 L50.52 42.6 L50.45 42.28 L50.38 42.03 L50.23 41.71 L50.16 41.46 L50.02 41.14
								 L49.95 40.76 L49.8 40.44 L49.66 40.06 L49.3 39.3 L42.76 39.55 L42.47 39.17 L42.26 38.79 L41.97 38.41
								 L41.68 38.03 L44.84 32.96 L44.2 32.39 L43.98 32.14 L43.69 31.95 L43.41 31.69 L43.12 31.44 L42.9
								 31.18 L42.62 30.99 L42.33 30.74 L42.04 30.55 L41.32 30.04 L35.79 33.15 L35.36 32.9 L34.93 32.71
								 L34.42 32.45 L33.99 32.26 L33.85 26.49 L32.99 26.24 L32.63 26.18 L32.27 26.05 L31.91 25.99 L31.55
								 25.92 L31.19 25.8 L30.76 25.73 L30.4 25.67 L30.04 25.61 L29.11 25.48 L26.16 30.55 L25.87 30.55 L25.58
								 30.55 L25.37 30.55 L25.08 30.55 L24.79 30.55 L24.51 30.55 L24.22 30.61 L23.93 30.61 L20.63 25.67
								 L19.69 25.86 L19.33 25.92 L18.9 25.99 L18.54 26.05 L18.25 26.18 L17.89 26.24 L17.53 26.37 L17.25
								 26.43 L16.89 26.56 L16.03 26.81 L16.31 32.45 L15.81 32.71 L15.24 32.96 L14.73 33.28 L14.23 33.53
								 L8.62 30.8 L7.98 31.31 L7.47 31.76 L6.9 32.2 L6.4 32.71 L5.96 33.15 L5.32 33.78 L8.7 38.41 L8.34
								 38.92 L7.98 39.43 L7.62 40 L7.33 40.51 L1.15 40.57 L0.86 41.33 L0.65 41.96 L0.5 42.53 L0.29 43.17
								 L0.14 43.8 L0 44.63 L5.39 47.04 L5.32 47.67 L5.32 48.37 L5.32 49 L5.39 49.7 L0.22 52.42 L0.43 53.19
								 L0.57 53.82 L0.79 54.45 L1.01 55.02 L1.22 55.6 L1.51 56.36 L7.47 56.1 L7.83 56.74 L8.26 57.31 L8.7
								 57.88 L9.13 58.45 L6.18 63.08 L6.83 63.65 L7.33 64.09 L7.83 64.47 L8.34 64.92 L8.84 65.3 L9.56 65.87
								 L14.59 63.01 L14.95 63.2 L15.24 63.39 L15.59 63.58 L15.95 63.71 L16.24 63.9 L16.6 64.03 L16.96 64.15
								 L17.32 64.28 L17.39 69.48 L18.33 69.73 L18.68 69.8 L18.97 69.92 L19.33 69.99 L19.69 70.05 L19.98
								 70.11 L20.34 70.18 L20.7 70.24 L21.06 70.3 L21.99 70.43 L24.72 65.74 L25.08 65.74 L25.51 65.74 L25.87
								 65.74 L26.23 65.74 L26.59 65.74 L27.02 65.74 L27.38 65.68 L27.74 65.68 L30.83 70.18 L31.69 69.92
								 L31.98 69.86 L32.34 69.8 L32.63 69.73 L32.84 69.67 L33.2 69.54 L33.63 69.48 L33.99 69.35 L34.42
								 69.23 L35.29 68.91 L35 63.58 L35.29 63.39 L35.64 63.27 L35.93 63.08 L36.22 62.89 L36.51 62.76 L36.79
								 62.57 L37.08 62.44 L37.37 62.25 L42.69 64.92 L43.41 64.28 L43.91 63.84 L44.41 63.39 L44.92 62.89
								 L45.35 62.44 L45.92 61.81 L42.54 57.12 L42.83 56.61 L43.12 56.17 L43.33 55.66 L43.62 55.15 L49.95
								 55.09 L50.23 54.26 L50.45 53.63 L50.59 53 L50.74 52.36 L50.88 51.73 L51.02 50.9 L45.27 48.3 L45.27
								 47.8 L45.2 47.29 L45.2 46.85 L45.13 46.34 L45.13 46.34 Z" class="st3"/>
				</g>
				<g id="shape18-9" v:mID="18" v:groupContext="shape" transform="translate(2.87457,-2.53613)">
					<title>Sheet.18</title>
					<path d="M39.53 47.73 L39.67 48.43 L39.81 49.19 L39.88 49.95 L39.88 50.71 L39.88 51.47 L39.81 52.17 L45.35 54.71
								 L45.27 54.9 L45.27 55.02 L45.2 55.21 L45.13 55.4 L39.02 55.47 L38.73 56.17 L38.38 56.93 L38.02 57.69
								 L37.59 58.38 L37.08 59.02 L36.65 59.65 L39.88 64.15 L39.74 64.28 L39.67 64.41 L39.53 64.53 L39.38
								 64.66 L34.21 62.06 L33.56 62.57 L33.2 62.82 L32.77 63.08 L32.41 63.33 L31.98 63.58 L31.55 63.77
								 L31.12 64.03 L30.69 64.22 L30.25 64.41 L29.54 64.79 L29.82 69.92 L29.61 69.99 L29.39 69.99 L29.25
								 70.05 L29.11 70.11 L26.16 65.74 L25.3 65.87 L24.79 65.93 L24.29 65.99 L23.79 66.06 L23.28 66.06
								 L22.71 66.06 L22.21 66.06 L21.7 66.06 L21.2 66.06 L20.34 65.99 L17.68 70.43 L17.53 70.43 L17.39
								 70.37 L17.18 70.37 L17.03 70.3 L16.96 65.3 L16.17 65.04 L15.67 64.85 L15.24 64.66 L14.73 64.47 L14.23
								 64.28 L13.8 64.09 L13.29 63.84 L12.86 63.58 L12.43 63.33 L11.79 62.89 L6.9 65.61 L6.83 65.49 L6.68
								 65.42 L6.61 65.3 L6.47 65.23 L9.27 60.79 L8.77 60.22 L8.48 59.84 L8.12 59.46 L7.83 59.08 L7.55 58.7
								 L7.26 58.32 L7.04 57.88 L6.76 57.5 L6.54 57.05 L6.18 56.36 L0.43 56.55 L0.36 56.42 L0.36 56.36 L0.36
								 56.23 L0.29 56.04 L5.25 53.38 L5.17 52.68 L5.03 51.73 L5.03 50.84 L5.03 49.95 L5.1 49.06 L5.17 48.3
								 L0 45.89 L0.07 45.77 L0.07 45.58 L0.07 45.45 L0.14 45.32 L6.11 45.26 L6.4 44.56 L6.83 43.87 L7.26
								 43.1 L7.76 42.34 L8.34 41.65 L8.84 41.01 L5.61 36.57 L5.75 36.45 L5.89 36.32 L6.04 36.19 L6.18 36.07
								 L11.5 38.73 L12.15 38.29 L12.5 38.03 L12.86 37.84 L13.22 37.65 L13.65 37.4 L14.01 37.21 L14.44 37.02
								 L14.8 36.89 L15.24 36.7 L16.03 36.38 L15.74 30.93 L15.88 30.93 L16.03 30.87 L16.24 30.8 L16.53 30.74
								 L19.69 35.5 L20.55 35.43 L20.98 35.37 L21.34 35.37 L21.77 35.37 L22.21 35.31 L22.64 35.31 L23.07
								 35.31 L23.5 35.37 L23.93 35.37 L24.79 35.43 L27.67 30.55 L27.88 30.61 L28.1 30.61 L28.24 30.68 L28.46
								 30.74 L28.53 36.26 L29.32 36.57 L29.68 36.7 L30.04 36.89 L30.47 37.02 L30.83 37.21 L31.19 37.4 L31.55
								 37.59 L31.84 37.78 L32.2 37.97 L32.91 38.35 L38.23 35.37 L38.38 35.5 L38.52 35.62 L38.66 35.75 L38.81
								 35.88 L35.79 40.76 L36.29 41.33 L36.79 41.9 L37.23 42.53 L37.66 43.17 L38.02 43.8 L38.38 44.44 L44.7
								 44.18 L44.77 44.37 L44.84 44.56 L44.84 44.75 L44.92 44.88 L39.53 47.73 L39.53 47.73 Z" class="st4"/>
				</g>
			</g>
			<g id="shape19-11" v:mID="19" v:groupContext="shape" transform="translate(84.8171,-29.8072) rotate(38.6598)">
				<title>Sheet.19</title>
				<path d="M-0 70.43 A14.1732 12.8344 90 0 1 18.15 70.43" class="st5"/>
			</g>
			<g id="shape21-17" v:mID="21" v:groupContext="shape" transform="translate(29.4803,-15.4772)">
				<title>Sheet.21</title>
				<desc>M</desc>
				<v:textBlock v:margins="rect(0,0,0,0)" v:tabSpace="42.5197" v:verticalAlign="2"/>
				<v:textRect cx="11.3386" cy="56.9669" width="22.68" height="26.9291"/>
				<rect x="0" y="43.5024" width="22.6772" height="26.9291" class="st7"/>
				<text x="6.34" y="67.13" class="st8" v:langID="1033"><v:paragraph v:spLine="-1.1" v:horizAlign="1"/><v:tabList/>M</text>			</g>
		</g>
	</g>
</svg>
